# Blender v2.79 (sub 0) OBJ File: 'Backdrop.blend'
# www.blender.org
mtllib Backdrop.mtl
o Cylinder
v 2.000000 -0.003362 4.000001
v -2.000000 -0.003362 4.000001
v 2.000000 3.007632 -1.000000
v -2.000000 3.007632 -1.000000
v -2.000000 0.996638 -1.000000
v 2.000000 0.996638 -1.000000
v -2.000000 0.898621 -0.995185
v 2.000000 0.898621 -0.995185
v -2.000000 0.801548 -0.980785
v 2.000000 0.801547 -0.980785
v -2.000000 0.706353 -0.956940
v 2.000000 0.706353 -0.956940
v -2.000000 0.613955 -0.923879
v 2.000000 0.613954 -0.923879
v -2.000000 0.525241 -0.881921
v 2.000000 0.525241 -0.881921
v -2.000000 0.441068 -0.831469
v 2.000000 0.441067 -0.831469
v -2.000000 0.362245 -0.773010
v 2.000000 0.362244 -0.773010
v -2.000000 0.289531 -0.707106
v 2.000000 0.289531 -0.707106
v -2.000000 0.223628 -0.634393
v 2.000000 0.223627 -0.634393
v -2.000000 0.165168 -0.555570
v 2.000000 0.165168 -0.555570
v -2.000000 0.114717 -0.471396
v 2.000000 0.114716 -0.471396
v -2.000000 0.072759 -0.382683
v 2.000000 0.072758 -0.382683
v -2.000000 0.039698 -0.290284
v 2.000000 0.039697 -0.290284
v -2.000000 0.015853 -0.195090
v 2.000000 0.015853 -0.195090
v -2.000000 0.001454 -0.098016
v 2.000000 0.001453 -0.098016
v -2.000000 -0.003362 0.000001
v 2.000000 -0.003362 0.000001
v 2.000000 -0.003362 4.000001
v -2.000000 -0.003362 4.000001
v 2.000000 3.007632 -1.000000
v -2.000000 3.007632 -1.000000
v -2.000000 0.996638 -1.000000
v 2.000000 0.996638 -1.000000
v -2.000000 0.898621 -0.995185
v 2.000000 0.898621 -0.995185
v -2.000000 0.801548 -0.980785
v 2.000000 0.801547 -0.980785
v -2.000000 0.706353 -0.956940
v 2.000000 0.706353 -0.956940
v -2.000000 0.613955 -0.923879
v 2.000000 0.613954 -0.923879
v -2.000000 0.525241 -0.881921
v 2.000000 0.525241 -0.881921
v -2.000000 0.441068 -0.831469
v 2.000000 0.441067 -0.831469
v -2.000000 0.362245 -0.773010
v 2.000000 0.362244 -0.773010
v -2.000000 0.289531 -0.707106
v 2.000000 0.289531 -0.707106
v -2.000000 0.223628 -0.634393
v 2.000000 0.223627 -0.634393
v -2.000000 0.165168 -0.555570
v 2.000000 0.165168 -0.555570
v -2.000000 0.114717 -0.471396
v 2.000000 0.114716 -0.471396
v -2.000000 0.072759 -0.382683
v 2.000000 0.072758 -0.382683
v -2.000000 0.039698 -0.290284
v 2.000000 0.039697 -0.290284
v -2.000000 0.015853 -0.195090
v 2.000000 0.015853 -0.195090
v -2.000000 0.001454 -0.098016
v 2.000000 0.001453 -0.098016
v -2.000000 -0.003362 0.000001
v 2.000000 -0.003362 0.000001
v 2.000000 -0.003362 2.000001
v -2.000000 -0.003362 2.000001
v -0.000000 -0.003362 4.000001
v -2.000000 2.002135 -1.000000
v 2.000000 2.002135 -1.000000
v 0.000000 3.007632 -1.000000
v -0.000000 0.996638 -1.000000
v -2.000000 0.947630 -0.997592
v 2.000000 0.947629 -0.997592
v -0.000000 0.898621 -0.995185
v -2.000000 0.850084 -0.987985
v 2.000000 0.850084 -0.987985
v -0.000000 0.801548 -0.980785
v -2.000000 0.753951 -0.968863
v 2.000000 0.753950 -0.968863
v -0.000000 0.706353 -0.956940
v -2.000000 0.660154 -0.940410
v 2.000000 0.660154 -0.940410
v -0.000000 0.613954 -0.923879
v -2.000000 0.569598 -0.902900
v 2.000000 0.569598 -0.902900
v -0.000000 0.525241 -0.881921
v -2.000000 0.483155 -0.856695
v 2.000000 0.483154 -0.856695
v -0.000000 0.441068 -0.831469
v -2.000000 0.401656 -0.802240
v 2.000000 0.401656 -0.802240
v -0.000000 0.362245 -0.773010
v -2.000000 0.325888 -0.740058
v 2.000000 0.325888 -0.740058
v -0.000000 0.289531 -0.707106
v -2.000000 0.256579 -0.670750
v 2.000000 0.256579 -0.670750
v -0.000000 0.223627 -0.634393
v -2.000000 0.194398 -0.594981
v 2.000000 0.194398 -0.594981
v -0.000000 0.165168 -0.555570
v -2.000000 0.139943 -0.513483
v 2.000000 0.139942 -0.513483
v -0.000000 0.114717 -0.471396
v -2.000000 0.093738 -0.427039
v 2.000000 0.093737 -0.427040
v -0.000000 0.072758 -0.382683
v -2.000000 0.056228 -0.336483
v 2.000000 0.056228 -0.336484
v -0.000000 0.039698 -0.290284
v -2.000000 0.027775 -0.242687
v 2.000000 0.027775 -0.242687
v -0.000000 0.015853 -0.195090
v -2.000000 0.008653 -0.146553
v 2.000000 0.008653 -0.146553
v -0.000000 0.001453 -0.098016
v -2.000000 -0.000954 -0.049008
v 2.000000 -0.000954 -0.049008
v -0.000000 -0.003362 0.000001
v 2.000000 -0.003362 2.000001
v -2.000000 -0.003362 2.000001
v -0.000000 -0.003362 4.000001
v -2.000000 2.002135 -1.000000
v 2.000000 2.002135 -1.000000
v 0.000000 3.007632 -1.000000
v -0.000000 0.996638 -1.000000
v -2.000000 0.947630 -0.997592
v 2.000000 0.947629 -0.997592
v -0.000000 0.898621 -0.995185
v -2.000000 0.850084 -0.987985
v 2.000000 0.850084 -0.987985
v -0.000000 0.801548 -0.980785
v -2.000000 0.753951 -0.968863
v 2.000000 0.753950 -0.968863
v -0.000000 0.706353 -0.956940
v -2.000000 0.660154 -0.940410
v 2.000000 0.660154 -0.940410
v -0.000000 0.613954 -0.923879
v -2.000000 0.569598 -0.902900
v 2.000000 0.569598 -0.902900
v -0.000000 0.525241 -0.881921
v -2.000000 0.483155 -0.856695
v 2.000000 0.483154 -0.856695
v -0.000000 0.441068 -0.831469
v -2.000000 0.401656 -0.802240
v 2.000000 0.401656 -0.802240
v -0.000000 0.362245 -0.773010
v -2.000000 0.325888 -0.740058
v 2.000000 0.325888 -0.740058
v -0.000000 0.289531 -0.707106
v -2.000000 0.256579 -0.670750
v 2.000000 0.256579 -0.670750
v -0.000000 0.223627 -0.634393
v -2.000000 0.194398 -0.594981
v 2.000000 0.194398 -0.594981
v -0.000000 0.165168 -0.555570
v -2.000000 0.139943 -0.513483
v 2.000000 0.139942 -0.513483
v -0.000000 0.114717 -0.471396
v -2.000000 0.093738 -0.427039
v 2.000000 0.093737 -0.427040
v -0.000000 0.072758 -0.382683
v -2.000000 0.056228 -0.336483
v 2.000000 0.056228 -0.336484
v -0.000000 0.039698 -0.290284
v -2.000000 0.027775 -0.242687
v 2.000000 0.027775 -0.242687
v -0.000000 0.015853 -0.195090
v -2.000000 0.008653 -0.146553
v 2.000000 0.008653 -0.146553
v -0.000000 0.001453 -0.098016
v -2.000000 -0.000954 -0.049008
v 2.000000 -0.000954 -0.049008
v -0.000000 -0.003362 0.000001
v -0.000000 -0.000954 -0.049008
v -0.000000 0.008653 -0.146553
v -0.000000 0.027775 -0.242687
v -0.000000 0.056228 -0.336483
v -0.000000 0.093738 -0.427040
v -0.000000 0.139942 -0.513483
v -0.000000 0.194398 -0.594981
v -0.000000 0.256579 -0.670750
v -0.000000 0.325888 -0.740058
v -0.000000 0.401656 -0.802240
v -0.000000 0.483154 -0.856695
v -0.000000 0.569598 -0.902900
v -0.000000 0.660154 -0.940410
v -0.000000 0.753950 -0.968863
v -0.000000 0.850084 -0.987985
v -0.000000 0.947629 -0.997592
v 0.000000 2.002135 -1.000000
v -0.000000 -0.003362 2.000001
v -0.000000 -0.000954 -0.049008
v -0.000000 0.008653 -0.146553
v -0.000000 0.027775 -0.242687
v -0.000000 0.056228 -0.336483
v -0.000000 0.093738 -0.427040
v -0.000000 0.139942 -0.513483
v -0.000000 0.194398 -0.594981
v -0.000000 0.256579 -0.670750
v -0.000000 0.325888 -0.740058
v -0.000000 0.401656 -0.802240
v -0.000000 0.483154 -0.856695
v -0.000000 0.569598 -0.902900
v -0.000000 0.660154 -0.940410
v -0.000000 0.753950 -0.968863
v -0.000000 0.850084 -0.987985
v -0.000000 0.947629 -0.997592
v 0.000000 2.002135 -1.000000
v -0.000000 -0.003362 2.000001
vt 0.263849 0.263849
vt 0.000076 0.263846
vt 0.000073 0.527619
vt 0.263846 0.527623
vt 0.867310 0.263849
vt 0.999922 0.263846
vt 0.999916 0.000073
vt 0.867305 0.000075
vt 0.728227 0.263852
vt 0.721756 0.263852
vt 0.721761 0.527625
vt 0.728233 0.527625
vt 0.715284 0.263852
vt 0.708813 0.263852
vt 0.708818 0.527626
vt 0.715290 0.527626
vt 0.702342 0.263852
vt 0.695871 0.263852
vt 0.695875 0.527626
vt 0.702347 0.527626
vt 0.689400 0.263853
vt 0.682929 0.263853
vt 0.682933 0.527626
vt 0.689404 0.527626
vt 0.676458 0.263853
vt 0.669987 0.263853
vt 0.669990 0.527626
vt 0.676461 0.527626
vt 0.663516 0.263853
vt 0.657045 0.263853
vt 0.657047 0.527626
vt 0.663518 0.527626
vt 0.650573 0.263853
vt 0.644102 0.263853
vt 0.644104 0.527627
vt 0.650576 0.527626
vt 0.637631 0.263853
vt 0.631160 0.263853
vt 0.631162 0.527627
vt 0.637633 0.527627
vt 0.624689 0.263853
vt 0.618218 0.263853
vt 0.618219 0.527627
vt 0.624690 0.527627
vt 0.611747 0.263853
vt 0.605276 0.263853
vt 0.605276 0.527627
vt 0.611747 0.527627
vt 0.598805 0.263853
vt 0.592334 0.263853
vt 0.592333 0.527627
vt 0.598805 0.527627
vt 0.585863 0.263853
vt 0.579391 0.263853
vt 0.579390 0.527627
vt 0.585862 0.527627
vt 0.572920 0.263853
vt 0.566449 0.263853
vt 0.566448 0.527627
vt 0.572919 0.527627
vt 0.559978 0.263853
vt 0.553507 0.263853
vt 0.553505 0.527626
vt 0.559976 0.527626
vt 0.547036 0.263853
vt 0.540565 0.263853
vt 0.540562 0.527626
vt 0.547033 0.527626
vt 0.534094 0.263853
vt 0.527623 0.263853
vt 0.527619 0.527626
vt 0.534091 0.527626
vt 0.263849 0.263849
vt 0.000076 0.263846
vt 0.000073 0.527619
vt 0.263846 0.527623
vt 0.867310 0.263849
vt 0.999922 0.263846
vt 0.999916 0.000073
vt 0.867305 0.000075
vt 0.728227 0.263852
vt 0.721756 0.263852
vt 0.721761 0.527625
vt 0.728233 0.527625
vt 0.715284 0.263852
vt 0.708813 0.263852
vt 0.708818 0.527626
vt 0.715290 0.527626
vt 0.702342 0.263852
vt 0.695871 0.263852
vt 0.695875 0.527626
vt 0.702347 0.527626
vt 0.689400 0.263853
vt 0.682929 0.263853
vt 0.682933 0.527626
vt 0.689404 0.527626
vt 0.676458 0.263853
vt 0.669987 0.263853
vt 0.669990 0.527626
vt 0.676461 0.527626
vt 0.663516 0.263853
vt 0.657045 0.263853
vt 0.657047 0.527626
vt 0.663518 0.527626
vt 0.650573 0.263853
vt 0.644102 0.263853
vt 0.644104 0.527627
vt 0.650576 0.527626
vt 0.637631 0.263853
vt 0.631160 0.263853
vt 0.631162 0.527627
vt 0.637633 0.527627
vt 0.624689 0.263853
vt 0.618218 0.263853
vt 0.618219 0.527627
vt 0.624690 0.527627
vt 0.611747 0.263853
vt 0.605276 0.263853
vt 0.605276 0.527627
vt 0.611747 0.527627
vt 0.598805 0.263853
vt 0.592334 0.263853
vt 0.592333 0.527627
vt 0.598805 0.527627
vt 0.585863 0.263853
vt 0.579391 0.263853
vt 0.579390 0.527627
vt 0.585862 0.527627
vt 0.572920 0.263853
vt 0.566449 0.263853
vt 0.566448 0.527627
vt 0.572919 0.527627
vt 0.559978 0.263853
vt 0.553507 0.263853
vt 0.553505 0.527626
vt 0.559976 0.527626
vt 0.547036 0.263853
vt 0.540565 0.263853
vt 0.540562 0.527626
vt 0.547033 0.527626
vt 0.534094 0.263853
vt 0.527623 0.263853
vt 0.527619 0.527626
vt 0.534091 0.527626
vt 0.540568 0.000080
vt 0.534097 0.000080
vt 0.527626 0.000080
vt 0.553509 0.000080
vt 0.547039 0.000080
vt 0.566451 0.000080
vt 0.559980 0.000080
vt 0.579392 0.000080
vt 0.572922 0.000080
vt 0.592334 0.000080
vt 0.585863 0.000080
vt 0.605276 0.000080
vt 0.598805 0.000080
vt 0.618217 0.000080
vt 0.611746 0.000080
vt 0.631159 0.000080
vt 0.624688 0.000080
vt 0.644100 0.000080
vt 0.637630 0.000080
vt 0.657042 0.000080
vt 0.650571 0.000080
vt 0.669984 0.000079
vt 0.663513 0.000080
vt 0.682925 0.000079
vt 0.676454 0.000079
vt 0.695867 0.000079
vt 0.689396 0.000079
vt 0.708808 0.000079
vt 0.702338 0.000079
vt 0.721750 0.000079
vt 0.715279 0.000079
vt 0.734698 0.263852
vt 0.734704 0.527625
vt 0.734693 0.000078
vt 0.728221 0.000078
vt 0.867316 0.527622
vt 0.999927 0.527620
vt 0.263853 0.000076
vt 0.000080 0.000073
vt 0.534097 0.000080
vt 0.527626 0.000080
vt 0.540568 0.000080
vt 0.547039 0.000080
vt 0.553509 0.000080
vt 0.559980 0.000080
vt 0.566451 0.000080
vt 0.572922 0.000080
vt 0.579392 0.000080
vt 0.585863 0.000080
vt 0.592334 0.000080
vt 0.598805 0.000080
vt 0.605276 0.000080
vt 0.611746 0.000080
vt 0.618217 0.000080
vt 0.624688 0.000080
vt 0.631159 0.000080
vt 0.637630 0.000080
vt 0.644100 0.000080
vt 0.650571 0.000080
vt 0.657042 0.000080
vt 0.663513 0.000080
vt 0.669984 0.000079
vt 0.676454 0.000079
vt 0.682925 0.000079
vt 0.689396 0.000079
vt 0.695867 0.000079
vt 0.702338 0.000079
vt 0.708808 0.000079
vt 0.715279 0.000079
vt 0.721750 0.000079
vt 0.728221 0.000078
vt 0.734693 0.000078
vt 0.734698 0.263852
vt 0.734704 0.527625
vt 0.867316 0.527622
vt 0.999927 0.527620
vt 0.263853 0.000076
vt 0.000080 0.000073
vn 0.0000 1.0000 0.0000
vn 0.0000 0.0000 1.0000
vn 0.0000 0.0490 0.9988
vn 0.0000 0.0980 0.9952
vn 0.0000 0.1467 0.9892
vn 0.0000 0.1951 0.9808
vn 0.0000 0.2430 0.9700
vn 0.0000 0.2903 0.9569
vn 0.0000 0.3369 0.9415
vn 0.0000 0.3827 0.9239
vn 0.0000 0.4275 0.9040
vn 0.0000 0.4714 0.8819
vn 0.0000 0.5141 0.8577
vn 0.0000 0.5556 0.8314
vn 0.0000 0.5957 0.8032
vn 0.0000 0.6344 0.7730
vn 0.0000 0.6715 0.7409
vn 0.0000 0.7071 0.7071
vn 0.0000 0.7409 0.6715
vn 0.0000 0.7730 0.6344
vn 0.0000 0.8032 0.5957
vn 0.0000 0.8314 0.5556
vn 0.0000 0.8577 0.5141
vn 0.0000 0.8819 0.4714
vn 0.0000 0.9040 0.4275
vn 0.0000 0.9239 0.3827
vn 0.0000 0.9415 0.3369
vn 0.0000 0.9569 0.2903
vn 0.0000 0.9700 0.2430
vn 0.0000 0.9808 0.1951
vn 0.0000 0.9892 0.1467
vn 0.0000 0.9952 0.0980
vn 0.0000 0.9988 0.0490
vn 0.0000 0.9997 0.0245
vn 0.0000 0.0245 0.9997
usemtl Backdrop
s 1
f 222/1/1 79/2/1 1/3/1 77/4/1
f 221/5/2 82/6/2 4/7/2 80/8/2
f 220/9/3 86/10/4 8/11/4 85/12/3
f 219/13/5 89/14/6 10/15/6 88/16/5
f 218/17/7 92/18/8 12/19/8 91/20/7
f 217/21/9 95/22/10 14/23/10 94/24/9
f 216/25/11 98/26/12 16/27/12 97/28/11
f 215/29/13 101/30/14 18/31/14 100/32/13
f 214/33/15 104/34/16 20/35/16 103/36/15
f 213/37/17 107/38/18 22/39/18 106/40/17
f 212/41/19 110/42/20 24/43/20 109/44/19
f 211/45/21 113/46/22 26/47/22 112/48/21
f 210/49/23 116/50/24 28/51/24 115/52/23
f 209/53/25 119/54/26 30/55/26 118/56/25
f 208/57/27 122/58/28 32/59/28 121/60/27
f 207/61/29 125/62/30 34/63/30 124/64/29
f 206/65/31 128/66/32 36/67/32 127/68/31
f 205/69/33 131/70/34 38/71/34 130/72/33
f 204/73/1 134/74/1 39/75/1 132/76/1
f 203/77/2 137/78/2 42/79/2 135/80/2
f 202/81/3 141/82/4 46/83/4 140/84/3
f 201/85/5 144/86/6 48/87/6 143/88/5
f 200/89/7 147/90/8 50/91/8 146/92/7
f 199/93/9 150/94/10 52/95/10 149/96/9
f 198/97/11 153/98/12 54/99/12 152/100/11
f 197/101/13 156/102/14 56/103/14 155/104/13
f 196/105/15 159/106/16 58/107/16 158/108/15
f 195/109/17 162/110/18 60/111/18 161/112/17
f 194/113/19 165/114/20 62/115/20 164/116/19
f 193/117/21 168/118/22 64/119/22 167/120/21
f 192/121/23 171/122/24 66/123/24 170/124/23
f 191/125/25 174/126/26 68/127/26 173/128/25
f 190/129/27 177/130/28 70/131/28 176/132/27
f 189/133/29 180/134/30 72/135/30 179/136/29
f 188/137/31 183/138/32 74/139/32 182/140/31
f 187/141/33 186/142/34 76/143/34 185/144/33
f 183/138/32 187/141/33 185/144/33 74/139/32
f 73/145/32 184/146/33 187/141/33 183/138/32
f 184/146/33 75/147/34 186/142/34 187/141/33
f 180/134/30 188/137/31 182/140/31 72/135/30
f 71/148/30 181/149/31 188/137/31 180/134/30
f 181/149/31 73/145/32 183/138/32 188/137/31
f 177/130/28 189/133/29 179/136/29 70/131/28
f 69/150/28 178/151/29 189/133/29 177/130/28
f 178/151/29 71/148/30 180/134/30 189/133/29
f 174/126/26 190/129/27 176/132/27 68/127/26
f 67/152/26 175/153/27 190/129/27 174/126/26
f 175/153/27 69/150/28 177/130/28 190/129/27
f 171/122/24 191/125/25 173/128/25 66/123/24
f 65/154/24 172/155/25 191/125/25 171/122/24
f 172/155/25 67/152/26 174/126/26 191/125/25
f 168/118/22 192/121/23 170/124/23 64/119/22
f 63/156/22 169/157/23 192/121/23 168/118/22
f 169/157/23 65/154/24 171/122/24 192/121/23
f 165/114/20 193/117/21 167/120/21 62/115/20
f 61/158/20 166/159/21 193/117/21 165/114/20
f 166/159/21 63/156/22 168/118/22 193/117/21
f 162/110/18 194/113/19 164/116/19 60/111/18
f 59/160/18 163/161/19 194/113/19 162/110/18
f 163/161/19 61/158/20 165/114/20 194/113/19
f 159/106/16 195/109/17 161/112/17 58/107/16
f 57/162/16 160/163/17 195/109/17 159/106/16
f 160/163/17 59/160/18 162/110/18 195/109/17
f 156/102/14 196/105/15 158/108/15 56/103/14
f 55/164/14 157/165/15 196/105/15 156/102/14
f 157/165/15 57/162/16 159/106/16 196/105/15
f 153/98/12 197/101/13 155/104/13 54/99/12
f 53/166/12 154/167/13 197/101/13 153/98/12
f 154/167/13 55/164/14 156/102/14 197/101/13
f 150/94/10 198/97/11 152/100/11 52/95/10
f 51/168/10 151/169/11 198/97/11 150/94/10
f 151/169/11 53/166/12 153/98/12 198/97/11
f 147/90/8 199/93/9 149/96/9 50/91/8
f 49/170/8 148/171/9 199/93/9 147/90/8
f 148/171/9 51/168/10 150/94/10 199/93/9
f 144/86/6 200/89/7 146/92/7 48/87/6
f 47/172/6 145/173/7 200/89/7 144/86/6
f 145/173/7 49/170/8 147/90/8 200/89/7
f 141/82/4 201/85/5 143/88/5 46/83/4
f 45/174/4 142/175/5 201/85/5 141/82/4
f 142/175/5 47/172/6 144/86/6 201/85/5
f 138/176/35 202/81/3 140/84/3 44/177/35
f 43/178/35 139/179/3 202/81/3 138/176/35
f 139/179/3 45/174/4 141/82/4 202/81/3
f 138/176/35 203/77/2 135/80/2 43/178/35
f 44/177/35 136/180/2 203/77/2 138/176/35
f 136/180/2 41/181/2 137/78/2 203/77/2
f 186/142/34 204/73/1 132/76/1 76/143/34
f 75/147/34 133/182/1 204/73/1 186/142/34
f 133/182/1 40/183/1 134/74/1 204/73/1
f 129/184/33 37/185/34 131/70/34 205/69/33
f 35/186/32 129/184/33 205/69/33 128/66/32
f 128/66/32 205/69/33 130/72/33 36/67/32
f 126/187/31 35/186/32 128/66/32 206/65/31
f 33/188/30 126/187/31 206/65/31 125/62/30
f 125/62/30 206/65/31 127/68/31 34/63/30
f 123/189/29 33/188/30 125/62/30 207/61/29
f 31/190/28 123/189/29 207/61/29 122/58/28
f 122/58/28 207/61/29 124/64/29 32/59/28
f 120/191/27 31/190/28 122/58/28 208/57/27
f 29/192/26 120/191/27 208/57/27 119/54/26
f 119/54/26 208/57/27 121/60/27 30/55/26
f 117/193/25 29/192/26 119/54/26 209/53/25
f 27/194/24 117/193/25 209/53/25 116/50/24
f 116/50/24 209/53/25 118/56/25 28/51/24
f 114/195/23 27/194/24 116/50/24 210/49/23
f 25/196/22 114/195/23 210/49/23 113/46/22
f 113/46/22 210/49/23 115/52/23 26/47/22
f 111/197/21 25/196/22 113/46/22 211/45/21
f 23/198/20 111/197/21 211/45/21 110/42/20
f 110/42/20 211/45/21 112/48/21 24/43/20
f 108/199/19 23/198/20 110/42/20 212/41/19
f 21/200/18 108/199/19 212/41/19 107/38/18
f 107/38/18 212/41/19 109/44/19 22/39/18
f 105/201/17 21/200/18 107/38/18 213/37/17
f 19/202/16 105/201/17 213/37/17 104/34/16
f 104/34/16 213/37/17 106/40/17 20/35/16
f 102/203/15 19/202/16 104/34/16 214/33/15
f 17/204/14 102/203/15 214/33/15 101/30/14
f 101/30/14 214/33/15 103/36/15 18/31/14
f 99/205/13 17/204/14 101/30/14 215/29/13
f 15/206/12 99/205/13 215/29/13 98/26/12
f 98/26/12 215/29/13 100/32/13 16/27/12
f 96/207/11 15/206/12 98/26/12 216/25/11
f 13/208/10 96/207/11 216/25/11 95/22/10
f 95/22/10 216/25/11 97/28/11 14/23/10
f 93/209/9 13/208/10 95/22/10 217/21/9
f 11/210/8 93/209/9 217/21/9 92/18/8
f 92/18/8 217/21/9 94/24/9 12/19/8
f 90/211/7 11/210/8 92/18/8 218/17/7
f 9/212/6 90/211/7 218/17/7 89/14/6
f 89/14/6 218/17/7 91/20/7 10/15/6
f 87/213/5 9/212/6 89/14/6 219/13/5
f 7/214/4 87/213/5 219/13/5 86/10/4
f 86/10/4 219/13/5 88/16/5 8/11/4
f 84/215/3 7/214/4 86/10/4 220/9/3
f 5/216/35 84/215/3 220/9/3 83/217/35
f 83/217/35 220/9/3 85/12/3 6/218/35
f 81/219/2 3/220/2 82/6/2 221/5/2
f 6/218/35 81/219/2 221/5/2 83/217/35
f 83/217/35 221/5/2 80/8/2 5/216/35
f 78/221/1 2/222/1 79/2/1 222/1/1
f 37/185/34 78/221/1 222/1/1 131/70/34
f 131/70/34 222/1/1 77/4/1 38/71/34
